<svg width="60" height="53" viewBox="0 0 60 53" fill="none" xmlns="http://www.w3.org/2000/svg">
<path d="M12.5705 0H43.5478C45.2634 0 46.6904 -8.50094e-08 47.8609 0.0962699C52.3792 0.465305 55.4544 3.69035 55.8136 8.25996C56.022 10.8625 56.0862 14.5111 56.1086 16.6611C56.115 17.2558 56.1182 17.8517 56.1182 18.4485C56.1182 19.0868 55.8649 19.6992 55.416 20.1509C54.9638 20.6024 54.3513 20.8566 53.7132 20.8569C53.0782 20.8572 52.4657 20.604 52.0136 20.1532C51.5614 19.7021 51.3081 19.09 51.3081 18.4517C51.3049 17.1146 51.2888 15.7774 51.2632 14.4405H4.81014V40.2729C4.81014 42.1085 4.81012 43.344 4.89028 44.2906C4.96404 45.2148 5.09875 45.6544 5.24626 45.9432C5.63107 46.7006 6.24355 47.3135 7.00035 47.6986C7.28895 47.8462 7.7283 47.981 8.64864 48.0548C9.59784 48.1318 10.8292 48.135 12.6667 48.135H43.4516C45.2858 48.135 46.5204 48.135 47.4664 48.0548C48.39 47.981 48.8293 47.8462 49.1179 47.6986C49.4001 47.5458 49.7111 47.4512 50.0286 47.42C50.3493 47.3889 50.67 47.4219 50.9778 47.5176C51.2825 47.6129 51.5678 47.7685 51.8116 47.9755C52.0585 48.1825 52.2605 48.4366 52.4048 48.7226C52.5491 49.0085 52.6389 49.3207 52.6613 49.641C52.6838 49.9612 52.6421 50.2828 52.5395 50.5867C52.4369 50.8909 52.2765 51.1713 52.0617 51.4114C51.85 51.6517 51.5903 51.8472 51.3017 51.9858C50.221 52.5377 49.0794 52.7559 47.8609 52.8522C46.6936 52.9485 45.2633 52.9485 43.5509 52.9485H12.5673C10.8549 52.9485 9.42465 52.9485 8.25739 52.8522C7.03882 52.7559 5.89722 52.5377 4.81654 51.9858C3.15865 51.1415 1.80862 49.7934 0.962037 48.135C0.410475 47.0503 0.192401 45.9079 0.0961988 44.6885C-3.91043e-06 43.5172 0 42.0892 0 40.3756V12.5793C0 10.8689 -3.91043e-06 9.43446 0.0961988 8.26317C0.458562 3.83154 3.73265 0.465305 8.25739 0.0962699C9.42785 -8.50094e-08 10.8549 0 12.5705 0Z" fill="url(#paint0_linear_11_51)"/>
<path d="M9.62012 20.0563C9.62012 19.418 9.87345 18.8058 10.3256 18.3545C10.7746 17.9031 11.387 17.6495 12.0252 17.6495H31.2657C31.9039 17.6495 32.5164 17.9031 32.9653 18.3545C33.4175 18.8058 33.6708 19.418 33.6708 20.0563C33.6708 20.6946 33.4175 21.3068 32.9653 21.758C32.5164 22.2095 31.9039 22.463 31.2657 22.463H12.0252C11.387 22.463 10.7746 22.2095 10.3256 21.758C9.87345 21.3068 9.62012 20.6946 9.62012 20.0563Z" fill="url(#paint1_linear_11_51)"/>
<path fill-rule="evenodd" clip-rule="evenodd" d="M45.6962 20.8585C44.0865 20.8592 42.4959 21.2333 41.0529 21.9521C39.613 22.671 38.356 23.7142 37.3844 25.0004C36.4127 26.2869 35.7553 27.7807 35.4571 29.3653C35.1589 30.9499 35.2326 32.5816 35.6719 34.1325C36.1144 35.6838 36.9065 37.1115 37.9904 38.3042C39.0743 39.497 40.4179 40.4222 41.9187 41.0069C43.4227 41.5915 45.0389 41.82 46.6422 41.6743C48.2456 41.5287 49.7945 41.0126 51.167 40.1671L55.2203 44.22C55.4416 44.4565 55.7045 44.6462 55.9996 44.7778C56.2946 44.9093 56.6153 44.9799 56.9359 44.9857C57.2598 44.9915 57.5805 44.9318 57.8819 44.8108C58.1802 44.6898 58.4527 44.5098 58.6804 44.281C58.9081 44.0525 59.0877 43.7804 59.2095 43.4807C59.3314 43.181 59.3891 42.8601 59.3859 42.5369C59.3795 42.2138 59.3089 41.8951 59.1774 41.5999C59.046 41.3047 58.8568 41.039 58.6195 40.8185L54.5693 36.7623C55.5442 35.1822 56.0765 33.3704 56.1182 31.5143C56.1599 29.6579 55.7013 27.8246 54.797 26.2038C53.8927 24.5826 52.5747 23.2325 50.9746 22.2929C49.3744 21.3533 47.553 20.8582 45.6962 20.8585ZM40.0844 31.2878C40.0844 29.7985 40.6745 28.3701 41.7295 27.317C42.7813 26.2638 44.2083 25.672 45.6962 25.672C47.1842 25.672 48.6112 26.2638 49.663 27.317C50.718 28.3701 51.3081 29.7985 51.3081 31.2878C51.3081 32.7771 50.718 34.2054 49.663 35.2586C48.6112 36.3118 47.1842 36.9035 45.6962 36.9035C44.2083 36.9035 42.7813 36.3118 41.7295 35.2586C40.6745 34.2054 40.0844 32.7771 40.0844 31.2878Z" fill="url(#paint2_linear_11_51)"/>
<path d="M9.62012 26.4743C9.62012 25.836 9.87345 25.2237 10.3256 24.7725C10.7746 24.321 11.387 24.0675 12.0252 24.0675H21.6455C22.2836 24.0675 22.8961 24.321 23.345 24.7725C23.7972 25.2237 24.0505 25.836 24.0505 26.4743C24.0505 27.1125 23.7972 27.7248 23.345 28.176C22.8961 28.6275 22.2836 28.881 21.6455 28.881H12.0252C11.387 28.881 10.7746 28.6275 10.3256 28.176C9.87345 27.7248 9.62012 27.1125 9.62012 26.4743ZM12.0252 33.6945C11.387 33.6945 10.7746 33.948 10.3256 34.3995C9.87345 34.8507 9.62012 35.463 9.62012 36.1013C9.62012 36.7395 9.87345 37.3518 10.3256 37.803C10.7746 38.2545 11.387 38.508 12.0252 38.508H28.059C28.6971 38.508 29.3096 38.2545 29.7585 37.803C30.2107 37.3518 30.464 36.7395 30.464 36.1013C30.464 35.463 30.2107 34.8507 29.7585 34.3995C29.3096 33.948 28.6971 33.6945 28.059 33.6945H12.0252ZM9.62012 42.5193C9.62012 41.881 9.87345 41.2687 10.3256 40.8175C10.7746 40.366 11.387 40.1125 12.0252 40.1125H21.6455C22.2836 40.1125 22.8961 40.366 23.345 40.8175C23.7972 41.2687 24.0505 41.881 24.0505 42.5193C24.0505 43.1575 23.7972 43.7698 23.345 44.221C22.8961 44.6725 22.2836 44.926 21.6455 44.926H12.0252C11.387 44.926 10.7746 44.6725 10.3256 44.221C9.87345 43.7698 9.62012 43.1575 9.62012 42.5193Z" fill="url(#paint3_linear_11_51)"/>
<defs>
<linearGradient id="paint0_linear_11_51" x1="0" y1="26.4742" x2="56.1182" y2="26.4742" gradientUnits="userSpaceOnUse">
<stop stop-color="#8A7CFF"/>
<stop offset="0.1" stop-color="#8D7FFF"/>
<stop offset="0.2" stop-color="#8F82FF"/>
<stop offset="0.3" stop-color="#9285FF"/>
<stop offset="0.4" stop-color="#9588FF"/>
<stop offset="0.5" stop-color="#988BFF"/>
<stop offset="0.6" stop-color="#9A8EFF"/>
<stop offset="0.7" stop-color="#9D91FF"/>
<stop offset="0.8" stop-color="#A094FF"/>
<stop offset="0.9" stop-color="#A397FF"/>
<stop offset="1" stop-color="#A69AFF"/>
</linearGradient>
<linearGradient id="paint1_linear_11_51" x1="9.62012" y1="20.0563" x2="33.6708" y2="20.0563" gradientUnits="userSpaceOnUse">
<stop stop-color="#8A7CFF"/>
<stop offset="0.1" stop-color="#8D7FFF"/>
<stop offset="0.2" stop-color="#8F82FF"/>
<stop offset="0.3" stop-color="#9285FF"/>
<stop offset="0.4" stop-color="#9588FF"/>
<stop offset="0.5" stop-color="#988BFF"/>
<stop offset="0.6" stop-color="#9A8EFF"/>
<stop offset="0.7" stop-color="#9D91FF"/>
<stop offset="0.8" stop-color="#A094FF"/>
<stop offset="0.9" stop-color="#A397FF"/>
<stop offset="1" stop-color="#A69AFF"/>
</linearGradient>
<linearGradient id="paint2_linear_11_51" x1="35.2773" y1="32.9223" x2="59.386" y2="32.9223" gradientUnits="userSpaceOnUse">
<stop stop-color="#8A7CFF"/>
<stop offset="0.1" stop-color="#8D7FFF"/>
<stop offset="0.2" stop-color="#8F82FF"/>
<stop offset="0.3" stop-color="#9285FF"/>
<stop offset="0.4" stop-color="#9588FF"/>
<stop offset="0.5" stop-color="#988BFF"/>
<stop offset="0.6" stop-color="#9A8EFF"/>
<stop offset="0.7" stop-color="#9D91FF"/>
<stop offset="0.8" stop-color="#A094FF"/>
<stop offset="0.9" stop-color="#A397FF"/>
<stop offset="1" stop-color="#A69AFF"/>
</linearGradient>
<linearGradient id="paint3_linear_11_51" x1="9.62012" y1="34.4968" x2="30.464" y2="34.4968" gradientUnits="userSpaceOnUse">
<stop stop-color="#8A7CFF"/>
<stop offset="0.1" stop-color="#8D7FFF"/>
<stop offset="0.2" stop-color="#8F82FF"/>
<stop offset="0.3" stop-color="#9285FF"/>
<stop offset="0.4" stop-color="#9588FF"/>
<stop offset="0.5" stop-color="#988BFF"/>
<stop offset="0.6" stop-color="#9A8EFF"/>
<stop offset="0.7" stop-color="#9D91FF"/>
<stop offset="0.8" stop-color="#A094FF"/>
<stop offset="0.9" stop-color="#A397FF"/>
<stop offset="1" stop-color="#A69AFF"/>
</linearGradient>
</defs>
</svg>
