<svg width="67" height="67" viewBox="0 0 67 67" fill="none" xmlns="http://www.w3.org/2000/svg">
<path d="M17.1249 33.3575C17.9603 35.8593 18.378 37.9441 18.378 37.9441C21.7194 43.3647 25.8963 42.5308 25.8963 45.4495C25.8963 46.7004 25.0609 47.9513 23.8079 48.3683L33.4147 55.8737L43.0214 48.7853C41.7684 47.9513 40.933 47.1174 40.933 45.8665C40.933 42.5308 45.1099 43.7817 48.4514 38.3611C48.4514 38.3611 49.2867 36.6932 49.7044 33.7745C50.9574 29.1878 52.2105 20.8485 51.7928 16.6788H45.5275C45.5275 15.4279 45.9452 14.177 45.9452 12.5091H50.5398C49.2867 6.6716 46.3629 4.16979 41.3507 2.91889C39.2622 1.25102 36.3385 0.00012207 33.4147 0.00012207C30.4909 0.00012207 27.5671 1.25102 25.4787 2.91889C20.4664 4.16979 17.9603 6.6716 16.2895 12.5091H20.8841C20.8841 14.177 21.3018 15.4279 21.7195 16.6788H15.0365C14.6188 20.8485 15.8719 29.1878 17.1249 33.3575ZM46.7806 35.4423L45.5275 36.6932L43.4391 39.195C41.7684 41.2799 40.0976 42.5308 37.5915 42.9477L35.9208 43.3647C34.2501 43.7817 32.1616 43.7817 30.0732 43.3647L28.4024 42.9477C25.8963 42.1138 23.8079 40.8629 22.1372 38.3611L21.3018 36.6932L20.0487 35.4423L17.1249 33.3575L30.0732 29.6048C32.1616 29.1878 34.25 28.7709 36.3385 29.6048L49.7044 33.3575L46.7806 35.4423ZM25.061 12.5091C25.061 7.9225 28.8201 4.16979 33.4147 4.16979C38.0092 4.16979 41.7684 7.9225 41.7684 12.5091C41.7684 17.0958 38.0092 20.8485 33.4147 20.8485C28.8201 20.8485 25.061 17.0958 25.061 12.5091Z" fill="url(#paint0_linear_11_72)"/>
<path d="M64.7413 59.2094C59.3114 49.2022 53.8815 50.8701 48.4516 50.0361H48.0339L33.4149 60.8773L18.7959 50.0361H18.3781C12.5305 50.4531 7.51834 49.2022 2.08843 59.2094C1.25306 60.8773 0.417686 63.7961 0 66.7148H66.8297C66.412 63.7961 65.5767 60.8773 64.7413 59.2094Z" fill="url(#paint1_linear_11_72)"/>
<defs>
<linearGradient id="paint0_linear_11_72" x1="14.9546" y1="27.9369" x2="51.8747" y2="27.9369" gradientUnits="userSpaceOnUse">
<stop stop-color="#8A7CFF"/>
<stop offset="0.1" stop-color="#8D7FFF"/>
<stop offset="0.2" stop-color="#8F82FF"/>
<stop offset="0.3" stop-color="#9285FF"/>
<stop offset="0.4" stop-color="#9588FF"/>
<stop offset="0.5" stop-color="#988BFF"/>
<stop offset="0.6" stop-color="#9A8EFF"/>
<stop offset="0.7" stop-color="#9D91FF"/>
<stop offset="0.8" stop-color="#A094FF"/>
<stop offset="0.9" stop-color="#A397FF"/>
<stop offset="1" stop-color="#A69AFF"/>
</linearGradient>
<linearGradient id="paint1_linear_11_72" x1="0" y1="58.3755" x2="66.8297" y2="58.3755" gradientUnits="userSpaceOnUse">
<stop stop-color="#8A7CFF"/>
<stop offset="0.1" stop-color="#8D7FFF"/>
<stop offset="0.2" stop-color="#8F82FF"/>
<stop offset="0.3" stop-color="#9285FF"/>
<stop offset="0.4" stop-color="#9588FF"/>
<stop offset="0.5" stop-color="#988BFF"/>
<stop offset="0.6" stop-color="#9A8EFF"/>
<stop offset="0.7" stop-color="#9D91FF"/>
<stop offset="0.8" stop-color="#A094FF"/>
<stop offset="0.9" stop-color="#A397FF"/>
<stop offset="1" stop-color="#A69AFF"/>
</linearGradient>
</defs>
</svg>
