<svg width="16" height="16" viewBox="0 0 16 16" fill="none" xmlns="http://www.w3.org/2000/svg">
<g clip-path="url(#clip0_11_8)">
<path d="M9.68812 14.4537C9.71344 14.5168 9.75746 14.5707 9.81427 14.608C9.87108 14.6454 9.93796 14.6645 10.0059 14.6628C10.0739 14.661 10.1397 14.6385 10.1945 14.5983C10.2494 14.5581 10.2906 14.502 10.3126 14.4377L14.6449 1.77422C14.6662 1.71516 14.6703 1.65125 14.6566 1.58997C14.643 1.52868 14.6121 1.47255 14.5677 1.42816C14.5233 1.38376 14.4672 1.35292 14.4059 1.33925C14.3446 1.32559 14.2807 1.32966 14.2217 1.35099L1.55815 5.68324C1.49384 5.7053 1.4378 5.7465 1.39758 5.80132C1.35735 5.85615 1.33486 5.92196 1.33312 5.98994C1.33138 6.05791 1.35047 6.12479 1.38784 6.1816C1.4252 6.23841 1.47905 6.28243 1.54216 6.30775L6.8275 8.42722C6.99459 8.49411 7.14639 8.59415 7.27377 8.7213C7.40115 8.84845 7.50146 9.00007 7.56865 9.16703L9.68812 14.4537Z" stroke="white" stroke-width="1.333" stroke-linecap="round" stroke-linejoin="round"/>
<path d="M14.5657 1.43097L7.27417 8.72181" stroke="white" stroke-width="1.333" stroke-linecap="round" stroke-linejoin="round"/>
</g>
<defs>
<clipPath id="clip0_11_8">
<rect width="15.996" height="15.996" fill="white"/>
</clipPath>
</defs>
</svg>
