<svg width="31" height="31" viewBox="0 0 31 31" fill="none" xmlns="http://www.w3.org/2000/svg">
<path d="M18.7756 28.0113C18.8247 28.1336 18.91 28.2379 19.0201 28.3103C19.1302 28.3827 19.2598 28.4197 19.3915 28.4164C19.5233 28.413 19.6508 28.3694 19.7571 28.2915C19.8633 28.2135 19.9432 28.1049 19.9859 27.9803L28.3818 3.43851C28.4231 3.32406 28.431 3.20021 28.4045 3.08144C28.378 2.96267 28.3183 2.85389 28.2322 2.76785C28.1462 2.6818 28.0374 2.62204 27.9186 2.59556C27.7999 2.56907 27.676 2.57696 27.5616 2.6183L3.01983 11.0142C2.89518 11.0569 2.78659 11.1368 2.70863 11.243C2.63067 11.3493 2.58708 11.4768 2.58371 11.6085C2.58033 11.7403 2.61734 11.8699 2.68975 11.98C2.76217 12.0901 2.86653 12.1754 2.98883 12.2245L13.2318 16.332C13.5556 16.4616 13.8498 16.6555 14.0966 16.9019C14.3435 17.1483 14.5379 17.4422 14.6681 17.7657L18.7756 28.0113Z" stroke="white" stroke-width="2.58334" stroke-linecap="round" stroke-linejoin="round"/>
<path d="M28.228 2.77325L14.0972 16.9028" stroke="white" stroke-width="2.58334" stroke-linecap="round" stroke-linejoin="round"/>
</svg>
