<svg width="45" height="56" viewBox="0 0 45 56" fill="none" xmlns="http://www.w3.org/2000/svg">
<path d="M8.4375 2.8V5.6C8.4375 7.0852 9.03009 8.50959 10.0851 9.55979C11.14 10.61 12.5708 11.2 14.0625 11.2H30.9375C32.4292 11.2 33.86 10.61 34.9149 9.55979C35.9699 8.50959 36.5625 7.0852 36.5625 5.6V2.8H39.375C40.8667 2.8 42.2975 3.38999 43.3524 4.44021C44.4074 5.49041 45 6.9148 45 8.4V39.2C45 43.6556 43.2222 47.9287 40.0573 51.0793C36.8927 54.2301 32.6005 56 28.125 56H5.625C4.13325 56 2.70253 55.41 1.64756 54.3598C0.592594 53.3095 0 51.8851 0 50.4V8.4C0 6.9148 0.592594 5.49041 1.64756 4.44021C2.70253 3.38999 4.13325 2.8 5.625 2.8H8.4375ZM22.5 33.6H14.0625C13.3166 33.6 12.6011 33.8951 12.0738 34.4201C11.5464 34.9451 11.25 35.6574 11.25 36.4C11.25 37.1426 11.5464 37.8549 12.0738 38.3799C12.6011 38.9049 13.3166 39.2 14.0625 39.2H22.5C23.2459 39.2 23.9614 38.9049 24.4887 38.3799C25.0161 37.8549 25.3125 37.1426 25.3125 36.4C25.3125 35.6574 25.0161 34.9451 24.4887 34.4201C23.9614 33.8951 23.2459 33.6 22.5 33.6ZM30.9375 22.4H14.0625C13.3456 22.4008 12.6562 22.6741 12.1348 23.1638C11.6137 23.6538 11.3001 24.3236 11.2579 25.0359C11.216 25.7482 11.4488 26.4499 11.909 26.997C12.3691 27.5444 13.0216 27.8961 13.7334 27.9804L14.0625 28H30.9375C31.6834 28 32.3989 27.7049 32.9262 27.1799C33.4536 26.6549 33.75 25.9426 33.75 25.2C33.75 24.4574 33.4536 23.7451 32.9262 23.2201C32.3989 22.6951 31.6834 22.4 30.9375 22.4ZM28.125 0C28.8419 0.000784 29.5313 0.274064 30.0527 0.76398C30.5738 1.2539 30.8874 1.92346 30.9296 2.63589C30.9715 3.34835 30.7387 4.04986 30.2785 4.59712C29.8184 5.14441 29.1659 5.49612 28.4541 5.5804L28.125 5.6H16.875C16.1581 5.59922 15.4687 5.32594 14.9473 4.83602C14.4262 4.3461 14.1126 3.67654 14.0704 2.96411C14.0285 2.25165 14.2613 1.55014 14.7215 1.00288C15.1816 0.455588 15.8341 0.10388 16.5459 0.0195999L16.875 0H28.125Z" fill="url(#paint0_linear_11_47)"/>
<defs>
<linearGradient id="paint0_linear_11_47" x1="0" y1="28" x2="45" y2="28" gradientUnits="userSpaceOnUse">
<stop stop-color="#8A7CFF"/>
<stop offset="0.1" stop-color="#8D7FFF"/>
<stop offset="0.2" stop-color="#8F82FF"/>
<stop offset="0.3" stop-color="#9285FF"/>
<stop offset="0.4" stop-color="#9588FF"/>
<stop offset="0.5" stop-color="#988BFF"/>
<stop offset="0.6" stop-color="#9A8EFF"/>
<stop offset="0.7" stop-color="#9D91FF"/>
<stop offset="0.8" stop-color="#A094FF"/>
<stop offset="0.9" stop-color="#A397FF"/>
<stop offset="1" stop-color="#A69AFF"/>
</linearGradient>
</defs>
</svg>
