<svg width="35" height="36" viewBox="0 0 35 36" fill="none" xmlns="http://www.w3.org/2000/svg">
<path d="M8.08429 9.41739C8.08429 6.91975 9.0636 4.52439 10.8068 2.7583C12.55 0.992184 14.9142 0 17.3795 0C19.8447 0 22.209 0.992184 23.9523 2.7583C25.6954 4.52439 26.6747 6.91975 26.6747 9.41739C26.6747 11.915 25.6954 14.3104 23.9523 16.0766C22.209 17.8426 19.8447 18.8348 17.3795 18.8348C14.9142 18.8348 12.55 17.8426 10.8068 16.0766C9.0636 14.3104 8.08429 11.915 8.08429 9.41739ZM17.0529 21.3095C17.1226 21.2989 17.1928 21.2928 17.2631 21.2915H17.4959C17.567 21.2915 17.637 21.2976 17.706 21.3095L29.4988 23.4108L29.5603 23.4239C31.7329 23.9316 34.0672 25.3287 34.5215 28.0425L34.5279 28.09L34.7122 29.5264V29.5297C35.139 32.82 32.5638 35.2129 29.5231 35.2129C29.456 35.2116 29.3891 35.2061 29.3226 35.1965H5.23592C2.19517 35.1965 -0.381624 32.802 0.0467644 29.51L0.231052 28.0868L0.239135 28.0376C0.691771 25.3729 3.04548 23.8973 5.21329 23.4206L5.26017 23.4108L17.0529 21.3095Z" fill="#8A7CFF"/>
</svg>
