<svg width="67" height="56" viewBox="0 0 67 56" fill="none" xmlns="http://www.w3.org/2000/svg">
<path d="M38.3487 31.9375C36.2918 29.8959 35.2632 27.4165 35.2632 24.5C35.2632 21.5834 36.2918 19.1042 38.3487 17.0625C40.4056 15.0208 42.9036 14 45.8421 14C48.7806 14 51.2786 15.0208 53.3355 17.0625C55.3924 19.1042 56.4211 21.5834 56.4211 24.5C56.4211 27.4165 55.3924 29.8959 53.3355 31.9375C51.2786 33.979 48.7806 35 45.8421 35C42.9036 35 40.4056 33.979 38.3487 31.9375ZM28.2105 56C27.2115 56 26.3744 55.664 25.6998 54.992C25.0252 54.32 24.6867 53.4894 24.6842 52.5V49.35C24.6842 48.125 24.978 46.9584 25.5658 45.85C26.1536 44.7415 26.9763 43.8665 28.0342 43.225C30.679 41.65 33.4859 40.4694 36.4551 39.683C39.4242 38.8965 42.5531 38.5024 45.8421 38.5C49.1311 38.4975 52.2611 38.892 55.2327 39.683C58.2043 40.474 61.0098 41.6545 63.65 43.225C64.7079 43.8665 65.5306 44.7415 66.1184 45.85C66.7063 46.9584 67 48.125 67 49.35V52.5C67 53.4915 66.6615 54.3235 65.9844 54.9955C65.3074 55.6675 64.4706 56.0024 63.4737 56H28.2105ZM24.6842 35H3.52633C2.52722 35 1.69032 34.664 1.01559 33.992C0.340901 33.32 0.00237455 32.4894 1.19185e-05 31.5C-0.00231545 30.5105 0.336211 29.68 1.01559 29.008C1.69501 28.336 2.53191 28 3.52633 28H24.6842C25.6832 28 26.5214 28.336 27.1985 29.008C27.8755 29.68 28.213 30.5105 28.2105 31.5C28.2081 32.4894 27.8695 33.321 27.195 33.9955C26.5204 34.6699 25.6832 35.0045 24.6842 35ZM38.7895 7H3.52633C2.52722 7 1.69032 6.664 1.01559 5.992C0.340901 5.32 0.00237455 4.48934 1.19185e-05 3.5C-0.00231545 2.51065 0.336211 1.68 1.01559 1.008C1.69501 0.336 2.53191 0 3.52633 0H38.7895C39.7885 0 40.6267 0.336 41.3037 1.008C41.9808 1.68 42.3183 2.51065 42.3158 3.5C42.3133 4.48934 41.9748 5.32115 41.3002 5.9955C40.6256 6.66984 39.7885 7.00465 38.7895 7ZM28.5632 21H3.52633C2.52722 21 1.69032 20.664 1.01559 19.992C0.340901 19.32 0.00237455 18.4893 1.19185e-05 17.5C-0.00231545 16.5107 0.336211 15.68 1.01559 15.008C1.69501 14.336 2.53191 14 3.52633 14H31.7368C30.9142 14.9917 30.2533 16.0708 29.7551 17.2375C29.2568 18.4042 28.8594 19.6583 28.5632 21Z" fill="url(#paint0_linear_11_43)"/>
<defs>
<linearGradient id="paint0_linear_11_43" x1="0" y1="28" x2="67" y2="28" gradientUnits="userSpaceOnUse">
<stop stop-color="#8A7CFF"/>
<stop offset="0.1" stop-color="#8D7FFF"/>
<stop offset="0.2" stop-color="#8F82FF"/>
<stop offset="0.3" stop-color="#9285FF"/>
<stop offset="0.4" stop-color="#9588FF"/>
<stop offset="0.5" stop-color="#988BFF"/>
<stop offset="0.6" stop-color="#9A8EFF"/>
<stop offset="0.7" stop-color="#9D91FF"/>
<stop offset="0.8" stop-color="#A094FF"/>
<stop offset="0.9" stop-color="#A397FF"/>
<stop offset="1" stop-color="#A69AFF"/>
</linearGradient>
</defs>
</svg>
