<svg width="67" height="66" viewBox="0 0 67 66" fill="none" xmlns="http://www.w3.org/2000/svg">
<path d="M23.4632 2.24822C25.6682 2.24822 27.7149 2.92944 29.3997 4.08727V62.9502C27.4448 64.4138 25.0626 65.2034 22.6151 65.1985H21.9141C19.5042 65.198 17.1577 64.4327 15.2164 63.0136C13.2751 61.5946 11.8408 59.5959 11.1221 57.3095L10.7399 56.0864C7.76423 55.6786 5.0373 54.2141 3.063 51.9632C1.08869 49.7118 0.000904606 46.8269 0 43.8403V42.7162C0 40.4114 0.593875 38.1447 1.72554 36.1325C2.85675 34.1204 4.4882 32.4306 6.46341 31.2233C4.67727 29.7867 3.37327 27.8438 2.72603 25.6522C2.07833 23.4611 2.11722 21.1256 2.83819 18.957C3.55871 16.7883 4.92694 14.8894 6.76058 13.513C8.59376 12.1366 10.8055 11.3481 13.1009 11.2524C13.4397 8.75908 14.6768 6.47255 16.5819 4.81677C18.4874 3.16105 20.9326 2.24845 23.4632 2.24822ZM33.9227 16.3671C34.2393 16.5694 34.5785 16.7343 34.9404 16.8617L38.8076 18.1207C39.4634 18.3298 40.0605 18.6917 40.5489 19.1773C40.5489 19.2583 40.6394 19.3392 40.7389 19.4246C40.8027 19.4781 40.8601 19.5385 40.9108 19.6045C41.2229 19.9927 41.4608 20.4347 41.6119 20.9085L42.8557 24.7305C43.0968 25.4508 43.5038 26.105 44.0452 26.6405C44.5862 27.1761 45.2461 27.5776 45.9716 27.8137C46.6975 28.0502 47.4687 28.1136 48.2236 27.9998C48.9785 27.8861 49.6959 27.5978 50.3187 27.1585C49.9636 27.7759 49.7696 28.471 49.7533 29.1819C49.7533 30.043 50.0202 30.8838 50.5222 31.5875C51.0288 32.2912 51.7389 32.8241 52.5576 33.1163L54.8191 33.8133C54.9399 33.8645 55.048 33.9414 55.1357 34.0381C55.2357 34.128 55.3067 34.2454 55.3393 34.3753L56.0177 36.4212C56.314 37.262 56.859 37.9995 57.5781 38.5345C58.295 39.0305 59.1472 39.2967 60.0206 39.2967C60.894 39.2967 61.7461 39.0305 62.463 38.5345L62.6145 38.4109C63.084 39.7985 63.3228 41.2526 63.3224 42.7162V43.8403C63.3215 46.8269 62.2337 49.7118 60.2594 51.9632C58.2851 54.2141 55.5582 55.6786 52.5825 56.0864L52.2003 57.3095C51.4816 59.5959 50.0473 61.5946 48.106 63.0136C46.1647 64.4327 43.8182 65.198 41.4083 65.1985H40.7073C38.2594 65.2025 35.8776 64.4125 33.9227 62.948V16.3671ZM59.8872 22.4822C60.0577 22.4809 60.2237 22.5326 60.363 22.6303C60.5023 22.7278 60.6072 22.8664 60.6628 23.0263L61.3368 25.0902C61.5489 25.717 61.904 26.2862 62.3753 26.7534C62.8461 27.2201 63.4196 27.5722 64.0506 27.7813L66.1244 28.4558L66.1674 28.4625C66.2868 28.5048 66.3949 28.574 66.4831 28.6644C66.5713 28.7552 66.6373 28.8649 66.6758 28.985C66.7142 29.105 66.7246 29.2323 66.7052 29.3573C66.6862 29.4818 66.6382 29.6001 66.5654 29.7035C66.4673 29.8411 66.328 29.945 66.1674 30.0003L64.0868 30.6725C63.4572 30.8825 62.885 31.235 62.4151 31.7017C61.9456 32.1689 61.591 32.7377 61.3798 33.3636L60.7013 35.4275C60.6439 35.5853 60.5389 35.722 60.401 35.8187C60.2626 35.9149 60.0979 35.9671 59.9292 35.9671C59.7601 35.9671 59.5954 35.9149 59.457 35.8187C59.3191 35.722 59.2141 35.5853 59.1567 35.4275L58.4805 33.3636C58.2702 32.735 57.916 32.1635 57.4452 31.6945C56.9748 31.2256 56.4008 30.8717 55.7689 30.6613L53.6929 29.9913C53.5735 29.949 53.4654 29.8798 53.3772 29.7894C53.289 29.6986 53.2229 29.5889 53.1845 29.4688C53.146 29.3488 53.1356 29.2215 53.1551 29.0965C53.1741 28.9719 53.222 28.8537 53.2948 28.7503C53.393 28.6127 53.5323 28.5088 53.6929 28.4535L55.7689 27.7813C56.3918 27.5664 56.9562 27.2116 57.4189 26.7449C57.8817 26.2786 58.2304 25.712 58.4375 25.0902L59.116 23.0263C59.1716 22.8674 59.2752 22.7297 59.4131 22.6322C59.5506 22.5347 59.718 22.4823 59.8872 22.4822ZM47.4172 2.27377e-06C47.7279 0.00157603 48.03 0.0979346 48.2838 0.276084C48.5375 0.454188 48.7298 0.705494 48.8351 0.995965L50.0722 4.77972C50.458 5.9301 51.108 6.97525 51.9705 7.83227C52.8335 8.68925 53.8855 9.33453 55.043 9.71682L58.8514 10.9466L58.926 10.9646C59.2187 11.0688 59.4719 11.26 59.6515 11.5121C59.8311 11.7643 59.9283 12.0652 59.9301 12.3742C59.9301 12.6836 59.8333 12.9853 59.6538 13.2378C59.4738 13.4902 59.2196 13.6811 58.926 13.7839L55.1176 15.0136C53.9606 15.3962 52.909 16.0416 52.0465 16.8986C51.1839 17.7556 50.5344 18.8006 50.1491 19.9507L48.9098 23.7345C48.8075 24.0268 48.6158 24.2799 48.3616 24.4585C48.1074 24.6371 47.803 24.7323 47.4918 24.7305C47.1811 24.7305 46.8776 24.6348 46.6238 24.4564C46.3696 24.2781 46.1774 24.0259 46.0738 23.7345L44.8345 19.9507C44.4514 18.7973 43.8028 17.7487 42.9403 16.8884C42.0777 16.0282 41.0252 15.38 39.866 14.9956L36.0576 13.7659C35.7649 13.6616 35.5116 13.4705 35.3321 13.2183C35.1525 12.9662 35.0553 12.6652 35.0535 12.3562C35.0535 12.0469 35.1503 11.7452 35.3298 11.4927C35.5098 11.2402 35.764 11.0494 36.0576 10.9466L39.866 9.71682C40.9931 9.32999 42.0171 8.6928 42.8598 7.85367C43.7019 7.01455 44.3411 5.99556 44.7282 4.87415L44.7599 4.77972L45.9969 0.995965C46.101 0.704235 46.2932 0.45176 46.5478 0.273386C46.802 0.0949675 47.106 -0.0005373 47.4172 2.27377e-06Z" fill="url(#paint0_linear_11_67)"/>
<defs>
<linearGradient id="paint0_linear_11_67" x1="0" y1="32.5992" x2="66.7147" y2="32.5992" gradientUnits="userSpaceOnUse">
<stop stop-color="#8A7CFF"/>
<stop offset="0.1" stop-color="#8D7FFF"/>
<stop offset="0.2" stop-color="#8F82FF"/>
<stop offset="0.3" stop-color="#9285FF"/>
<stop offset="0.4" stop-color="#9588FF"/>
<stop offset="0.5" stop-color="#988BFF"/>
<stop offset="0.6" stop-color="#9A8EFF"/>
<stop offset="0.7" stop-color="#9D91FF"/>
<stop offset="0.8" stop-color="#A094FF"/>
<stop offset="0.9" stop-color="#A397FF"/>
<stop offset="1" stop-color="#A69AFF"/>
</linearGradient>
</defs>
</svg>
