<svg width="84" height="75" viewBox="0 0 84 75" fill="none" xmlns="http://www.w3.org/2000/svg">
<path d="M17.6277 0H61.0673C63.4731 0 65.4742 -1.19209e-07 67.1156 0.135C73.4516 0.6525 77.7641 5.175 78.2678 11.583C78.5601 15.2325 78.65 20.349 78.6814 23.364C78.6904 24.198 78.695 25.0335 78.695 25.8705C78.695 26.7656 78.3397 27.6243 77.7102 28.2577C77.0761 28.8909 76.2172 29.2473 75.3223 29.2478C74.4319 29.2482 73.5731 28.8932 72.939 28.2609C72.3049 27.6283 71.9497 26.7701 71.9497 25.875C71.9452 23.9999 71.9227 22.1248 71.8867 20.25H6.74528V56.475C6.74528 59.049 6.74526 60.7815 6.85768 62.109C6.9611 63.405 7.15001 64.0215 7.35686 64.4265C7.89649 65.4885 8.75537 66.348 9.81663 66.888C10.2213 67.095 10.8374 67.284 12.128 67.3875C13.4591 67.4955 15.1859 67.5 17.7626 67.5H60.9324C63.5046 67.5 65.2359 67.5 66.5625 67.3875C67.8576 67.284 68.4736 67.095 68.8783 66.888C69.2741 66.6738 69.7102 66.5411 70.1554 66.4974C70.6051 66.4538 71.0548 66.5001 71.4865 66.6342C71.9137 66.7679 72.3139 66.9861 72.6557 67.2764C73.0019 67.5666 73.2852 67.923 73.4876 68.324C73.6899 68.7249 73.8159 69.1627 73.8473 69.6118C73.8788 70.0609 73.8204 70.5119 73.6765 70.938C73.5326 71.3646 73.3077 71.7579 73.0064 72.0945C72.7097 72.4315 72.3454 72.7056 71.9407 72.9C70.4253 73.674 68.8244 73.98 67.1156 74.115C65.4787 74.25 63.4731 74.25 61.0718 74.25H17.6232C15.2219 74.25 13.2162 74.25 11.5794 74.115C9.87058 73.98 8.26971 73.674 6.75427 72.9C4.4294 71.7161 2.53624 69.8256 1.34907 67.5C0.575611 65.979 0.269806 64.377 0.1349 62.667C-5.48363e-06 61.0245 0 59.022 0 56.619V17.64C0 15.2415 -5.48363e-06 13.23 0.1349 11.5875C0.643045 5.373 5.23433 0.6525 11.5794 0.135C13.2207 -1.19209e-07 15.2218 0 17.6277 0Z" fill="#8A7CFF"/>
<path d="M13.4905 28.125C13.4905 27.2299 13.8457 26.3714 14.4798 25.7385C15.1094 25.1056 15.9682 24.75 16.8631 24.75H43.8443C44.7391 24.75 45.598 25.1056 46.2276 25.7385C46.8616 26.3714 47.2169 27.2299 47.2169 28.125C47.2169 29.02 46.8616 29.8787 46.2276 30.5114C45.598 31.1445 44.7391 31.5 43.8443 31.5H16.8631C15.9682 31.5 15.1094 31.1445 14.4798 30.5114C13.8457 29.8787 13.4905 29.02 13.4905 28.125Z" fill="#8A7CFF"/>
<path fill-rule="evenodd" clip-rule="evenodd" d="M64.0802 29.25C61.8228 29.2509 59.5924 29.7756 57.5688 30.7836C55.5497 31.7916 53.7869 33.2545 52.4244 35.0581C51.0619 36.8622 50.14 38.9569 49.7218 41.179C49.3036 43.4011 49.407 45.6894 50.023 47.8643C50.6436 50.0396 51.7543 52.0416 53.2743 53.7142C54.7942 55.3869 56.6784 56.6843 58.783 57.5042C60.892 58.3241 63.1584 58.6445 65.4068 58.4402C67.6552 58.2359 69.8272 57.5122 71.7518 56.3265L77.4359 62.01C77.7462 62.3417 78.1149 62.6076 78.5286 62.7921C78.9423 62.9766 79.392 63.0756 79.8417 63.0837C80.2959 63.0918 80.7456 63.0081 81.1683 62.8384C81.5865 62.6688 81.9687 62.4163 82.288 62.0955C82.6072 61.7751 82.8591 61.3935 83.03 60.9732C83.2009 60.5529 83.2818 60.1029 83.2773 59.6498C83.2683 59.1966 83.1694 58.7497 82.985 58.3357C82.8006 57.9217 82.5353 57.5491 82.2025 57.24L76.523 51.552C77.8901 49.3362 78.6365 46.7955 78.695 44.1927C78.7535 41.5894 78.1104 39.0186 76.8423 36.7456C75.5742 34.4722 73.726 32.5791 71.482 31.2615C69.2381 29.9439 66.6839 29.2496 64.0802 29.25ZM56.2107 43.875C56.2107 41.7866 57.0382 39.7836 58.5176 38.3067C59.9926 36.8298 61.9937 36 64.0802 36C66.1668 36 68.1679 36.8298 69.6428 38.3067C71.1223 39.7836 71.9497 41.7866 71.9497 43.875C71.9497 45.9634 71.1223 47.9664 69.6428 49.4433C68.1679 50.9202 66.1668 51.75 64.0802 51.75C61.9937 51.75 59.9926 50.9202 58.5176 49.4433C57.0382 47.9664 56.2107 45.9634 56.2107 43.875Z" fill="#8A7CFF"/>
<path d="M13.4905 37.125C13.4905 36.23 13.8457 35.3713 14.4798 34.7386C15.1094 34.1055 15.9682 33.75 16.8631 33.75H30.3537C31.2486 33.75 32.1075 34.1055 32.737 34.7386C33.3711 35.3713 33.7263 36.23 33.7263 37.125C33.7263 38.02 33.3711 38.8787 32.737 39.5114C32.1075 40.1445 31.2486 40.5 30.3537 40.5H16.8631C15.9682 40.5 15.1094 40.1445 14.4798 39.5114C13.8457 38.8787 13.4905 38.02 13.4905 37.125ZM16.8631 47.25C15.9682 47.25 15.1094 47.6055 14.4798 48.2386C13.8457 48.8713 13.4905 49.73 13.4905 50.625C13.4905 51.52 13.8457 52.3787 14.4798 53.0114C15.1094 53.6445 15.9682 54 16.8631 54H39.3474C40.2423 54 41.1012 53.6445 41.7307 53.0114C42.3648 52.3787 42.72 51.52 42.72 50.625C42.72 49.73 42.3648 48.8713 41.7307 48.2386C41.1012 47.6055 40.2423 47.25 39.3474 47.25H16.8631ZM13.4905 59.625C13.4905 58.73 13.8457 57.8713 14.4798 57.2386C15.1094 56.6055 15.9682 56.25 16.8631 56.25H30.3537C31.2486 56.25 32.1075 56.6055 32.737 57.2386C33.3711 57.8713 33.7263 58.73 33.7263 59.625C33.7263 60.52 33.3711 61.3787 32.737 62.0114C32.1075 62.6445 31.2486 63 30.3537 63H16.8631C15.9682 63 15.1094 62.6445 14.4798 62.0114C13.8457 61.3787 13.4905 60.52 13.4905 59.625Z" fill="#8A7CFF"/>
</svg>
