<svg width="64" height="64" viewBox="0 0 64 64" fill="none" xmlns="http://www.w3.org/2000/svg">
<path d="M3.2495e-06 40.12V3.18412C3.2495e-06 2.33963 0.336134 1.52976 0.934271 0.93262C1.53241 0.335478 2.34385 0 3.18973 0C4.03561 0 4.84705 0.335478 5.44519 0.93262C6.04332 1.52976 6.37911 2.33963 6.37911 3.18412V40.12C6.37911 43.737 6.3791 46.262 6.53881 48.2235C6.69818 50.1531 6.99498 51.2611 7.42227 52.0986L7.78902 52.7544C8.71075 54.2508 10.0281 55.4704 11.6037 56.2728L11.9325 56.4288C12.7328 56.7727 13.7951 57.0148 15.4823 57.1516C17.4504 57.3142 19.9797 57.3142 23.6029 57.3142H60.6025L60.9261 57.3298C61.716 57.4087 62.4432 57.7765 62.9756 58.3622C63.5045 58.9475 63.8003 59.7089 63.8003 60.4981C63.8003 61.2876 63.5045 62.0487 62.9756 62.6343C62.4432 63.2196 61.716 63.5875 60.9261 63.6663L60.6025 63.6823H23.6029C20.0851 63.6823 17.2527 63.6854 14.9625 63.4975C12.9308 63.3322 11.1096 63.0074 9.42197 62.2845L8.70762 61.9469C5.89857 60.5189 3.57665 58.2917 2.03486 55.5468L1.73841 54.9897C0.775262 53.1014 0.37336 51.0635 0.185115 48.7456C-0.00312916 46.4561 3.2495e-06 43.6352 3.2495e-06 40.12Z" fill="url(#paint0_linear_11_79)"/>
<path d="M55.0215 44.5773L54.9832 45.3095C54.8127 46.948 54.0855 48.4781 52.9198 49.6424C51.7507 50.8071 50.2197 51.5348 48.5773 51.7033L47.8431 51.7415H44.6548C42.8785 51.7415 41.1655 51.0836 39.8467 49.8957C38.5283 48.7073 37.6978 47.0734 37.5165 45.3095L37.4782 44.5773V15.9202C37.4782 14.0202 38.2343 12.1979 39.5802 10.8544C40.9261 9.51079 42.7515 8.75598 44.6548 8.75598H47.8431L48.5773 8.79419C50.3449 8.97548 51.9803 9.80441 53.1703 11.1207C54.3603 12.437 55.0215 14.1471 55.0215 15.9202V44.5773ZM32.6938 44.5773L32.6555 45.3095C32.4868 46.948 31.7575 48.4781 30.5911 49.6424C29.4244 50.8071 27.8917 51.5348 26.2507 51.7033L25.5172 51.7415H22.3275C20.5512 51.7415 18.8382 51.0836 17.5198 49.8957C16.201 48.7073 15.3708 47.0734 15.1892 45.3095L15.1509 44.5773V28.6568C15.1509 26.7566 15.907 24.9344 17.2529 23.5908C18.5988 22.2473 20.4242 21.4924 22.3275 21.4924H25.5172L26.2507 21.5307C28.0176 21.7119 29.6544 22.5408 30.8444 23.8572C32.0348 25.1734 32.6935 26.8835 32.6938 28.6568V44.5773Z" fill="url(#paint1_linear_11_79)"/>
<defs>
<linearGradient id="paint0_linear_11_79" x1="0" y1="31.8412" x2="63.8003" y2="31.8412" gradientUnits="userSpaceOnUse">
<stop stop-color="#8A7CFF"/>
<stop offset="0.1" stop-color="#8D7FFF"/>
<stop offset="0.2" stop-color="#8F82FF"/>
<stop offset="0.3" stop-color="#9285FF"/>
<stop offset="0.4" stop-color="#9588FF"/>
<stop offset="0.5" stop-color="#988BFF"/>
<stop offset="0.6" stop-color="#9A8EFF"/>
<stop offset="0.7" stop-color="#9D91FF"/>
<stop offset="0.8" stop-color="#A094FF"/>
<stop offset="0.9" stop-color="#A397FF"/>
<stop offset="1" stop-color="#A69AFF"/>
</linearGradient>
<linearGradient id="paint1_linear_11_79" x1="15.1509" y1="30.2487" x2="55.0215" y2="30.2487" gradientUnits="userSpaceOnUse">
<stop stop-color="#8A7CFF"/>
<stop offset="0.1" stop-color="#8D7FFF"/>
<stop offset="0.2" stop-color="#8F82FF"/>
<stop offset="0.3" stop-color="#9285FF"/>
<stop offset="0.4" stop-color="#9588FF"/>
<stop offset="0.5" stop-color="#988BFF"/>
<stop offset="0.6" stop-color="#9A8EFF"/>
<stop offset="0.7" stop-color="#9D91FF"/>
<stop offset="0.8" stop-color="#A094FF"/>
<stop offset="0.9" stop-color="#A397FF"/>
<stop offset="1" stop-color="#A69AFF"/>
</linearGradient>
</defs>
</svg>
