<svg width="20" height="20" viewBox="0 0 20 20" fill="none" xmlns="http://www.w3.org/2000/svg">
<g clip-path="url(#clip0_11_24)">
<path d="M18.326 9.99602H16.2602C15.8961 9.99524 15.5418 10.1137 15.2515 10.3334C14.9612 10.553 14.7508 10.8617 14.6525 11.2122L12.6949 18.1761C12.6823 18.2193 12.656 18.2573 12.62 18.2844C12.5839 18.3114 12.5401 18.326 12.495 18.326C12.45 18.326 12.4061 18.3114 12.3701 18.2844C12.334 18.2573 12.3077 18.2193 12.2951 18.1761L7.69694 1.81596C7.68432 1.7727 7.65801 1.7347 7.62197 1.70767C7.58592 1.68063 7.54207 1.66602 7.49702 1.66602C7.45196 1.66602 7.40811 1.68063 7.37207 1.70767C7.33602 1.7347 7.30971 1.7727 7.2971 1.81596L5.33955 8.77984C5.24164 9.12899 5.03249 9.43667 4.74384 9.65616C4.45519 9.87566 4.10281 9.99498 3.74019 9.99602H1.66602" stroke="white" stroke-width="1.666" stroke-linecap="round" stroke-linejoin="round"/>
</g>
<defs>
<clipPath id="clip0_11_24">
<rect width="19.992" height="19.992" fill="white"/>
</clipPath>
</defs>
</svg>
