<svg width="34" height="40" viewBox="0 0 34 40" fill="none" xmlns="http://www.w3.org/2000/svg">
<path d="M16.9739 19.6537C22.3313 19.6537 26.6732 15.2546 26.6732 9.82685C26.6732 4.39905 22.3313 0 16.9739 0C11.6164 0 7.27451 4.39905 7.27451 9.82685C7.27451 15.2546 11.6164 19.6537 16.9739 19.6537ZM7.88072 32.5514C7.88072 33.5724 8.69159 34.394 9.69935 34.394C10.7071 34.394 11.518 33.5724 11.518 32.5514C11.518 31.5304 10.7071 30.7089 9.69935 30.7089C8.69159 30.7089 7.88072 31.5304 7.88072 32.5514ZM24.2484 22.1564V25.9183C27.0141 26.4865 29.098 28.9738 29.098 31.9373V35.1387C29.098 35.7221 28.6889 36.2288 28.1205 36.3439L25.6805 36.8353C25.3548 36.9044 25.0364 36.6895 24.9682 36.3516L24.7333 35.1464C24.6651 34.8162 24.8774 34.486 25.2107 34.4246L26.6732 34.1252V31.9373C26.6732 27.116 19.3987 26.9393 19.3987 32.0832V34.1329L20.8612 34.4323C21.1869 34.5014 21.3992 34.8239 21.3386 35.1541L21.1037 36.3593C21.0355 36.6895 20.7172 36.9044 20.3914 36.843L18.0272 36.5205C17.4284 36.4361 16.9815 35.9217 16.9815 35.2998V31.9373C16.9815 28.9738 19.0654 26.4942 21.8311 25.9183V22.4481C21.6645 22.502 21.4976 22.5326 21.331 22.594C19.9671 23.0777 18.5046 23.3465 16.9815 23.3465C15.4583 23.3465 13.9958 23.0777 12.632 22.594C12.0712 22.3944 11.5028 22.2716 10.9194 22.1949V28.4595C12.6698 28.9892 13.9504 30.6168 13.9504 32.5591C13.9504 34.9313 12.0484 36.8584 9.70695 36.8584C7.36552 36.8584 5.46348 34.9313 5.46348 32.5591C5.46348 30.6168 6.74412 28.9892 8.49453 28.4595V22.287C3.67508 23.1085 0 27.3155 0 32.4286V35.868C0 37.7642 1.52312 39.3074 3.39477 39.3074H30.553C32.4246 39.3074 33.9477 37.7642 33.9477 35.868V32.4286C33.9477 26.901 29.6436 22.4252 24.2484 22.1564Z" fill="#8A7CFF"/>
</svg>
